<?xml version="1.0" encoding="UTF-8" standalone="no"?>
<svg width="83px" height="33px" viewBox="0 0 83 33" version="1.1" xmlns="http://www.w3.org/2000/svg" xmlns:xlink="http://www.w3.org/1999/xlink">
    <g stroke="none" stroke-width="1" fill="none" fill-rule="evenodd">
        <g id="Portrait" sketch:type="MSArtboardGroup" transform="translate(-327.000000, -552.000000)" fill="#818181">
            <path d="M358.65,568.65 C358.65,559.45 352.35,552.8 343.15,552.8 C333.95,552.8 327.7,559.45 327.7,568.65 C327.7,577.8 333.95,584.5 343.15,584.5 C352.35,584.5 358.65,577.8 358.65,568.65 L358.65,568.65 Z M348.9,568.65 C348.9,573.25 346.55,576.05 343.15,576.05 C339.75,576.05 337.45,573.25 337.45,568.65 C337.45,564.05 339.75,561.25 343.15,561.25 C346.55,561.25 348.9,564.05 348.9,568.65 L348.9,568.65 Z M370.55,584 L370.55,574.05 L382.55,574.05 L382.55,565.95 L370.55,565.95 L370.55,561.65 L383.75,561.65 L383.75,553.3 L361,553.3 L361,584 L370.55,584 Z M396.35,584 L396.35,574.05 L408.35,574.05 L408.35,565.95 L396.35,565.95 L396.35,561.65 L409.55,561.65 L409.55,553.3 L386.8,553.3 L386.8,584 L396.35,584 Z"></path>
        </g>
    </g>
</svg>
